<?xml version="1.0" encoding="UTF-8"?>
<!DOCTYPE svg PUBLIC "-//W3C//DTD SVG 1.1//EN" "http://www.w3.org/Graphics/SVG/1.1/DTD/svg11.dtd">
<svg xmlns="http://www.w3.org/2000/svg" xmlns:xlink="http://www.w3.org/1999/xlink" width="100%" height="100%" viewBox="0 0 300 200">
    <script type="text/ecmascript" xlink:href="svg-graphics.js"/>
    <script type="text/ecmascript" xlink:href="ean-13.js"/><g id="canvas"><rect x="0" y="0" width="120" height="75" fill="#FFFFFF"/><rect x="12" y="10" width="1" height="54" fill="#000000"/><rect x="14" y="10" width="1" height="54" fill="#000000"/><text x="7" y="66" style="font-size:7px;text-anchor:middle;font-family:sans-serif;fill:#000000">9</text><rect x="16" y="10" width="1" height="50" fill="#000000"/><rect x="17" y="10" width="1" height="50" fill="#000000"/><rect x="18" y="10" width="1" height="50" fill="#000000"/><rect x="20" y="10" width="1" height="50" fill="#000000"/><rect x="21" y="10" width="1" height="50" fill="#000000"/><text x="18" y="66" style="font-size:7px;text-anchor:middle;font-family:sans-serif;fill:#000000">7</text><rect x="25" y="10" width="1" height="50" fill="#000000"/><rect x="28" y="10" width="1" height="50" fill="#000000"/><text x="25" y="66" style="font-size:7px;text-anchor:middle;font-family:sans-serif;fill:#000000">8</text><rect x="32" y="10" width="1" height="50" fill="#000000"/><rect x="35" y="10" width="1" height="50" fill="#000000"/><text x="32" y="66" style="font-size:7px;text-anchor:middle;font-family:sans-serif;fill:#000000">8</text><rect x="37" y="10" width="1" height="50" fill="#000000"/><rect x="38" y="10" width="1" height="50" fill="#000000"/><rect x="39" y="10" width="1" height="50" fill="#000000"/><rect x="40" y="10" width="1" height="50" fill="#000000"/><rect x="42" y="10" width="1" height="50" fill="#000000"/><text x="39" y="66" style="font-size:7px;text-anchor:middle;font-family:sans-serif;fill:#000000">3</text><rect x="45" y="10" width="1" height="50" fill="#000000"/><rect x="49" y="10" width="1" height="50" fill="#000000"/><text x="46" y="66" style="font-size:7px;text-anchor:middle;font-family:sans-serif;fill:#000000">7</text><rect x="52" y="10" width="1" height="50" fill="#000000"/><rect x="55" y="10" width="1" height="50" fill="#000000"/><rect x="56" y="10" width="1" height="50" fill="#000000"/><text x="53" y="66" style="font-size:7px;text-anchor:middle;font-family:sans-serif;fill:#000000">2</text><rect x="58" y="10" width="1" height="54" fill="#000000"/><rect x="60" y="10" width="1" height="54" fill="#000000"/><rect x="62" y="10" width="1" height="50" fill="#000000"/><rect x="66" y="10" width="1" height="50" fill="#000000"/><text x="65" y="66" style="font-size:7px;text-anchor:middle;font-family:sans-serif;fill:#000000">7</text><rect x="69" y="10" width="1" height="50" fill="#000000"/><rect x="72" y="10" width="1" height="50" fill="#000000"/><text x="72" y="66" style="font-size:7px;text-anchor:middle;font-family:sans-serif;fill:#000000">8</text><rect x="76" y="10" width="1" height="50" fill="#000000"/><rect x="77" y="10" width="1" height="50" fill="#000000"/><rect x="80" y="10" width="1" height="50" fill="#000000"/><rect x="81" y="10" width="1" height="50" fill="#000000"/><text x="79" y="66" style="font-size:7px;text-anchor:middle;font-family:sans-serif;fill:#000000">1</text><rect x="83" y="10" width="1" height="50" fill="#000000"/><rect x="86" y="10" width="1" height="50" fill="#000000"/><text x="86" y="66" style="font-size:7px;text-anchor:middle;font-family:sans-serif;fill:#000000">8</text><rect x="90" y="10" width="1" height="50" fill="#000000"/><rect x="92" y="10" width="1" height="50" fill="#000000"/><rect x="93" y="10" width="1" height="50" fill="#000000"/><rect x="94" y="10" width="1" height="50" fill="#000000"/><text x="93" y="66" style="font-size:7px;text-anchor:middle;font-family:sans-serif;fill:#000000">4</text><rect x="97" y="10" width="1" height="50" fill="#000000"/><rect x="98" y="10" width="1" height="50" fill="#000000"/><rect x="99" y="10" width="1" height="50" fill="#000000"/><rect x="102" y="10" width="1" height="50" fill="#000000"/><text x="100" y="66" style="font-size:7px;text-anchor:middle;font-family:sans-serif;fill:#000000">0</text><rect x="104" y="10" width="1" height="54" fill="#000000"/><rect x="106" y="10" width="1" height="54" fill="#000000"/></g>
</svg>